<svg class="icon" style="width: 1em;height: 1em;vertical-align: middle;fill: currentColor;overflow: hidden;" viewBox="0 0 1024 1024" version="1.1" xmlns="http://www.w3.org/2000/svg" p-id="8477"><path d="M313.91 592.32m-17.18 0l0.01 0q-17.18 0-17.18-17.18l0-371.96q0-17.18 17.18-17.18l-0.01 0q17.18 0 17.18 17.18l0 371.96q0 17.18-17.18 17.18Z" fill="#DD811D" p-id="8478"></path><path d="M296.73 356.28m-90.78 0a90.78 90.78 0 1 0 181.56 0 90.78 90.78 0 1 0-181.56 0Z" fill="#FCAE3F" p-id="8479"></path><path d="M239.61 356a90.81 90.81 0 0 1 73.78-89.19 90.78 90.78 0 1 0 0 178.38A90.81 90.81 0 0 1 239.61 356z" fill="#EF9529" p-id="8480"></path><path d="M296.73 487.31m-90.78 0a90.78 90.78 0 1 0 181.56 0 90.78 90.78 0 1 0-181.56 0Z" fill="#FC6257" p-id="8481"></path><path d="M239.61 487a90.81 90.81 0 0 1 73.78-89.19 90.78 90.78 0 1 0 0 178.38A90.81 90.81 0 0 1 239.61 487z" fill="#F94541" p-id="8482"></path><path d="M296.73 618.33m-90.78 0a90.78 90.78 0 1 0 181.56 0 90.78 90.78 0 1 0-181.56 0Z" fill="#FCAE3F" p-id="8483"></path><path d="M239.76 618.11a90.81 90.81 0 0 1 73.78-89.19 90.79 90.79 0 1 0 0 178.37 90.8 90.8 0 0 1-73.78-89.18z" fill="#EF9529" p-id="8484"></path><path d="M313.91 821m-17.18 0l0.01 0q-17.18 0-17.18-17.18l0-136.41q0-17.18 17.18-17.18l-0.01 0q17.18 0 17.18 17.18l0 136.41q0 17.18-17.18 17.18Z" fill="#DD811D" p-id="8485"></path><path d="M528.91 592.32m-17.18 0l0.01 0q-17.18 0-17.18-17.18l0-371.96q0-17.18 17.18-17.18l-0.01 0q17.18 0 17.18 17.18l0 371.96q0 17.18-17.18 17.18Z" fill="#DD811D" p-id="8486"></path><path d="M511.73 356.28m-90.78 0a90.78 90.78 0 1 0 181.56 0 90.78 90.78 0 1 0-181.56 0Z" fill="#FCAE3F" p-id="8487"></path><path d="M454.61 356a90.81 90.81 0 0 1 73.78-89.19 90.78 90.78 0 1 0 0 178.38A90.81 90.81 0 0 1 454.61 356z" fill="#EF9529" p-id="8488"></path><path d="M511.73 487.31m-90.78 0a90.78 90.78 0 1 0 181.56 0 90.78 90.78 0 1 0-181.56 0Z" fill="#FC6257" p-id="8489"></path><path d="M454.61 487a90.81 90.81 0 0 1 73.78-89.19 90.78 90.78 0 1 0 0 178.38A90.81 90.81 0 0 1 454.61 487z" fill="#F94541" p-id="8490"></path><path d="M511.73 618.33m-90.78 0a90.78 90.78 0 1 0 181.56 0 90.78 90.78 0 1 0-181.56 0Z" fill="#FCAE3F" p-id="8491"></path><path d="M454.76 618.11a90.81 90.81 0 0 1 73.78-89.19 90.79 90.79 0 1 0 0 178.37 90.8 90.8 0 0 1-73.78-89.18z" fill="#EF9529" p-id="8492"></path><path d="M528.91 821m-17.18 0l0.01 0q-17.18 0-17.18-17.18l0-136.41q0-17.18 17.18-17.18l-0.01 0q17.18 0 17.18 17.18l0 136.41q0 17.18-17.18 17.18Z" fill="#DD811D" p-id="8493"></path><path d="M743.91 592.32m-17.18 0l0.01 0q-17.18 0-17.18-17.18l0-371.96q0-17.18 17.18-17.18l-0.01 0q17.18 0 17.18 17.18l0 371.96q0 17.18-17.18 17.18Z" fill="#DD811D" p-id="8494"></path><path d="M726.73 356.28m-90.78 0a90.78 90.78 0 1 0 181.56 0 90.78 90.78 0 1 0-181.56 0Z" fill="#FCAE3F" p-id="8495"></path><path d="M669.61 356a90.81 90.81 0 0 1 73.78-89.19 90.78 90.78 0 1 0 0 178.38A90.81 90.81 0 0 1 669.61 356z" fill="#EF9529" p-id="8496"></path><path d="M726.73 487.31m-90.78 0a90.78 90.78 0 1 0 181.56 0 90.78 90.78 0 1 0-181.56 0Z" fill="#FC6257" p-id="8497"></path><path d="M669.61 487a90.81 90.81 0 0 1 73.78-89.19 90.78 90.78 0 1 0 0 178.38A90.81 90.81 0 0 1 669.61 487z" fill="#F94541" p-id="8498"></path><path d="M726.73 618.33m-90.78 0a90.78 90.78 0 1 0 181.56 0 90.78 90.78 0 1 0-181.56 0Z" fill="#FCAE3F" p-id="8499"></path><path d="M669.76 618.11a90.81 90.81 0 0 1 73.78-89.19 90.79 90.79 0 1 0 0 178.37 90.8 90.8 0 0 1-73.78-89.18z" fill="#EF9529" p-id="8500"></path><path d="M743.91 821m-17.18 0l0.01 0q-17.18 0-17.18-17.18l0-136.41q0-17.18 17.18-17.18l-0.01 0q17.18 0 17.18 17.18l0 136.41q0 17.18-17.18 17.18Z" fill="#DD811D" p-id="8501"></path></svg>